<svg xmlns="http://www.w3.org/2000/svg" xmlns:xlink="http://www.w3.org/1999/xlink" viewBox="0 0 350 200"><defs><style>.cls-1{fill:none;}.cls-2{clip-path:url(#clip-path);}.cls-3{fill:#fff;}.cls-4{fill:#3f6db5;}.cls-5{fill:#414042;}</style><clipPath id="clip-path"><path class="cls-1" d="M350,189.09c0,6-5.4,10.91-12,10.91H12c-6.6,0-12-4.91-12-10.91V10.91C0,4.91,5.4,0,12,0H338c6.6,0,12,4.91,12,10.91Z"/></clipPath></defs><g id="Layer_2" data-name="Layer 2"><g id="Layer_1-2" data-name="Layer 1"><g class="cls-2"><rect class="cls-3" y="56.22" width="350" height="120.59"/><rect class="cls-4" width="350" height="56.22"/><rect class="cls-4" y="176.81" width="350" height="23.19"/></g><path class="cls-5" d="M56.94,121.63a22.81,22.81,0,0,1-.37,4.18,9.44,9.44,0,0,1-1.43,3.59,7.44,7.44,0,0,1-3,2.51,11.89,11.89,0,0,1-5.13,1,10.75,10.75,0,0,1-6.25-1.76,8.35,8.35,0,0,1-3.3-5.5l6.29-1.54a3.16,3.16,0,0,0,3.08,2.72,2.7,2.7,0,0,0,1.85-.59,3.61,3.61,0,0,0,1-1.47A7.27,7.27,0,0,0,50,122.8c.05-.69.07-1.33.07-1.91v-20h6.86Z"/><path class="cls-5" d="M63.41,121.37a11.15,11.15,0,0,1,.93-4.62,10.38,10.38,0,0,1,2.53-3.54,11.25,11.25,0,0,1,3.78-2.27,14,14,0,0,1,9.28,0,11.2,11.2,0,0,1,3.79,2.27,10.65,10.65,0,0,1,2.53,3.54,12.06,12.06,0,0,1,0,9.24,10.65,10.65,0,0,1-2.53,3.54,11,11,0,0,1-3.79,2.27,14,14,0,0,1-9.28,0,11.09,11.09,0,0,1-3.78-2.27A10.38,10.38,0,0,1,64.34,126,11.15,11.15,0,0,1,63.41,121.37Zm6.6,0a5.53,5.53,0,0,0,1.39,3.92,5.84,5.84,0,0,0,7.79,0,6.26,6.26,0,0,0,0-7.84,5.84,5.84,0,0,0-7.79,0A5.53,5.53,0,0,0,70,121.37Z"/><path class="cls-5" d="M93.24,110.68h6.61v3.43h.08a8.15,8.15,0,0,1,2.51-3,6.35,6.35,0,0,1,3.65-1c.38,0,.77,0,1.15,0a5.47,5.47,0,0,1,1.05.18v6a9.18,9.18,0,0,0-1.38-.33,9.42,9.42,0,0,0-1.43-.11,6.87,6.87,0,0,0-3,.53,4,4,0,0,0-1.7,1.47,5.75,5.75,0,0,0-.77,2.27,21.67,21.67,0,0,0-.17,2.9v8.93H93.24Z"/><path class="cls-5" d="M135,132.06h-6.07v-2.81h-.09a7.1,7.1,0,0,1-1,1.16,7.49,7.49,0,0,1-1.5,1.08,8.93,8.93,0,0,1-1.89.79,7.27,7.27,0,0,1-2.13.31,11.09,11.09,0,0,1-4.32-.81,9.81,9.81,0,0,1-3.32-2.29,10.25,10.25,0,0,1-2.13-3.5,12.69,12.69,0,0,1-.75-4.44,13.57,13.57,0,0,1,.68-4.29,11.71,11.71,0,0,1,1.94-3.63,9.27,9.27,0,0,1,3.06-2.53,8.66,8.66,0,0,1,4.09-.95,11.23,11.23,0,0,1,3.85.64,6.15,6.15,0,0,1,2.93,2.18h.08V98.8H135Zm-6.07-10.69a5.57,5.57,0,0,0-1.38-3.92,5.84,5.84,0,0,0-7.79,0,6.22,6.22,0,0,0,0,7.84,5.84,5.84,0,0,0,7.79,0A5.57,5.57,0,0,0,128.93,121.37Z"/><path class="cls-5" d="M155.9,129.38h-.08a6.2,6.2,0,0,1-2.93,2.46,10,10,0,0,1-3.85.75,9.84,9.84,0,0,1-2.88-.42,7.14,7.14,0,0,1-2.44-1.25,6,6,0,0,1-1.68-2.07,6.31,6.31,0,0,1-.61-2.86,6.48,6.48,0,0,1,.68-3.12,6.09,6.09,0,0,1,1.85-2.12,9,9,0,0,1,2.66-1.29,19.65,19.65,0,0,1,3.1-.69,31.55,31.55,0,0,1,3.21-.26c1.07,0,2.06,0,3,0a3.42,3.42,0,0,0-1.25-2.8,4.53,4.53,0,0,0-3-1,6.49,6.49,0,0,0-3,.68,8.25,8.25,0,0,0-2.4,1.87l-3.52-3.61A12.13,12.13,0,0,1,147.1,111a15.53,15.53,0,0,1,5.11-.86,13.22,13.22,0,0,1,4.77.73,6.82,6.82,0,0,1,3,2.13,8.3,8.3,0,0,1,1.57,3.45,23,23,0,0,1,.44,4.73v10.87H155.9Zm-1.62-6.69c-.5,0-1.13,0-1.87.07a9.57,9.57,0,0,0-2.16.37,4.7,4.7,0,0,0-1.76.93,2.13,2.13,0,0,0-.73,1.71,1.89,1.89,0,0,0,1,1.76,4.21,4.21,0,0,0,2.11.57,6.5,6.5,0,0,0,1.87-.26,5.75,5.75,0,0,0,1.6-.75,3.6,3.6,0,0,0,1.13-1.23,3.66,3.66,0,0,0,.41-1.76v-1.41Z"/><path class="cls-5" d="M168.31,110.68h6.34v2.9h.09a5,5,0,0,1,.88-1.23,6.23,6.23,0,0,1,1.36-1.1,7.78,7.78,0,0,1,1.8-.79,7.41,7.41,0,0,1,2.2-.31,9.1,9.1,0,0,1,4.05.77,5.86,5.86,0,0,1,2.4,2.13,8.74,8.74,0,0,1,1.17,3.22,24.89,24.89,0,0,1,.31,4v11.79H182.3V121.59c0-.61,0-1.25-.06-1.91a6.27,6.27,0,0,0-.4-1.83,3.14,3.14,0,0,0-1-1.36,3.09,3.09,0,0,0-2-.53,4.07,4.07,0,0,0-2.07.46,3.25,3.25,0,0,0-1.21,1.23,5.38,5.38,0,0,0-.55,1.74,16.46,16.46,0,0,0-.13,2v10.65h-6.6Z"/><path class="cls-5" d="M240,129.86a24.63,24.63,0,0,1-6.33,2.29,32.17,32.17,0,0,1-6.73.71,19.3,19.3,0,0,1-6.74-1.15,15.32,15.32,0,0,1-5.32-3.28,14.79,14.79,0,0,1-3.5-5.17,19,19,0,0,1,0-13.55,14.88,14.88,0,0,1,3.5-5.17,15.47,15.47,0,0,1,5.32-3.28,19.3,19.3,0,0,1,6.74-1.14,25,25,0,0,1,6.88.9,13.49,13.49,0,0,1,5.52,3.1l-4.84,5.28a9.65,9.65,0,0,0-3.16-2.2,11.29,11.29,0,0,0-4.4-.75,10.21,10.21,0,0,0-4,.75,8.94,8.94,0,0,0-5,5.28,12.19,12.19,0,0,0,0,8,9,9,0,0,0,5,5.26,10.21,10.21,0,0,0,4,.75,13.06,13.06,0,0,0,3.87-.51,14.16,14.16,0,0,0,2.59-1v-5.06h-5.58v-6.34H240Z"/><path class="cls-5" d="M246.64,121.37a11.15,11.15,0,0,1,.92-4.62,10.65,10.65,0,0,1,2.53-3.54,11.25,11.25,0,0,1,3.78-2.27,14.05,14.05,0,0,1,9.29,0,11.25,11.25,0,0,1,3.78,2.27,10.51,10.51,0,0,1,2.53,3.54,11.94,11.94,0,0,1,0,9.24,10.51,10.51,0,0,1-2.53,3.54,11.09,11.09,0,0,1-3.78,2.27,14.05,14.05,0,0,1-9.29,0,11.09,11.09,0,0,1-3.78-2.27,10.65,10.65,0,0,1-2.53-3.54A11.15,11.15,0,0,1,246.64,121.37Zm6.6,0a5.57,5.57,0,0,0,1.38,3.92,5.84,5.84,0,0,0,7.79,0,6.22,6.22,0,0,0,0-7.84,5.84,5.84,0,0,0-7.79,0A5.57,5.57,0,0,0,253.24,121.37Z"/><path class="cls-5" d="M276.56,98.8h6.6v33.26h-6.6Z"/><path class="cls-5" d="M312.55,132.06h-6.07v-2.81h-.09a7.1,7.1,0,0,1-1,1.16,7.78,7.78,0,0,1-1.5,1.08,8.93,8.93,0,0,1-1.89.79,7.29,7.29,0,0,1-2.14.31,11.07,11.07,0,0,1-4.31-.81,9.72,9.72,0,0,1-3.32-2.29,10.12,10.12,0,0,1-2.14-3.5,12.93,12.93,0,0,1-.74-4.44,13.29,13.29,0,0,1,.68-4.29,11.69,11.69,0,0,1,1.93-3.63A9.48,9.48,0,0,1,295,111.1a8.72,8.72,0,0,1,4.09-.95,11.19,11.19,0,0,1,3.85.64,6.1,6.1,0,0,1,2.93,2.18H306V98.8h6.6Zm-6.07-10.69a5.57,5.57,0,0,0-1.39-3.92,5.84,5.84,0,0,0-7.79,0,6.26,6.26,0,0,0,0,7.84,5.84,5.84,0,0,0,7.79,0A5.57,5.57,0,0,0,306.48,121.37Z"/><path class="cls-3" d="M146.88,11.94h3.44v5.8H157v-5.8h3.43V27.51H157V20.78h-6.66v6.73h-3.44Z"/><path class="cls-3" d="M174.38,25.66a5.17,5.17,0,0,1-2,1.57,6.07,6.07,0,0,1-2.51.55,6.85,6.85,0,0,1-2.32-.4,5.63,5.63,0,0,1-1.89-1.13,5.24,5.24,0,0,1-1.26-1.77,5.91,5.91,0,0,1,0-4.62,5.24,5.24,0,0,1,1.26-1.77A5.65,5.65,0,0,1,167.55,17a6.85,6.85,0,0,1,2.32-.39A5.32,5.32,0,0,1,172,17a4.34,4.34,0,0,1,1.59,1.14,5.27,5.27,0,0,1,1,1.77,7.27,7.27,0,0,1,.35,2.31v1h-7.66a2.69,2.69,0,0,0,.86,1.51,2.44,2.44,0,0,0,1.63.56,2.53,2.53,0,0,0,1.38-.36,3.76,3.76,0,0,0,1-.94ZM171.59,21a2,2,0,0,0-2-2,2.43,2.43,0,0,0-1,.18,2.59,2.59,0,0,0-.72.45,2.09,2.09,0,0,0-.46.64,2.18,2.18,0,0,0-.19.76Z"/><path class="cls-3" d="M178,10.88h3.3V27.51H178Z"/><path class="cls-3" d="M184.86,10.88h3.3V27.51h-3.3Z"/><path class="cls-3" d="M191.24,22.17a5.57,5.57,0,0,1,.46-2.31A5.38,5.38,0,0,1,193,18.09,5.65,5.65,0,0,1,194.85,17a7.13,7.13,0,0,1,4.65,0,5.65,5.65,0,0,1,1.89,1.14,5.24,5.24,0,0,1,1.26,1.77,5.91,5.91,0,0,1,0,4.62,5.24,5.24,0,0,1-1.26,1.77,5.63,5.63,0,0,1-1.89,1.13,7,7,0,0,1-4.65,0A5.63,5.63,0,0,1,193,26.25a5.38,5.38,0,0,1-1.26-1.77A5.57,5.57,0,0,1,191.24,22.17Zm3.3,0a2.75,2.75,0,0,0,.69,1.95,2.9,2.9,0,0,0,3.89,0,2.76,2.76,0,0,0,.7-1.95,2.78,2.78,0,0,0-.7-2,2.9,2.9,0,0,0-3.89,0A2.78,2.78,0,0,0,194.54,22.17Z"/><path class="cls-3" d="M122.86,35.41h3.77l2.61,7.39h0l2.63-7.39h3.76V46.74h-2.5V38.05h0l-3,8.69h-1.9l-2.86-8.69h0v8.69h-2.49Z"/><path class="cls-3" d="M141.54,41.91l-4.25-6.5h3.1l2.4,4.24,2.55-4.24h3L144,41.91v4.83h-2.5Z"/><path class="cls-3" d="M155.46,35.41h3.4l4.81,7.87h0V35.41h2.5V46.74h-3.26L158,38.68h0v8.06h-2.5Z"/><path class="cls-3" d="M173,35.41h2.07L180,46.74h-2.81l-1-2.4h-4.4l-.94,2.4h-2.75Zm1,3.3-1.37,3.52h2.76Z"/><path class="cls-3" d="M182,35.41h3.78l2.6,7.39h0L191,35.41h3.76V46.74h-2.5V38.05h0l-3,8.69h-1.91l-2.86-8.69h0v8.69H182Z"/><path class="cls-3" d="M198,35.41h7.7v2.31h-5.2v2.11h4.91v2.3h-4.91v2.31h5.48v2.3h-8Z"/><path class="cls-3" d="M214.25,35.41h2.49V46.74h-2.49Z"/><path class="cls-3" d="M225.42,38.18a1.77,1.77,0,0,0-.83-.57,3,3,0,0,0-1-.18,2.74,2.74,0,0,0-.56.06,2.13,2.13,0,0,0-.55.2,1.1,1.1,0,0,0-.41.36.9.9,0,0,0-.16.55.91.91,0,0,0,.38.78,3.5,3.5,0,0,0,1,.46l1.26.39a5.56,5.56,0,0,1,1.25.54,3,3,0,0,1,1,.95,2.82,2.82,0,0,1,.38,1.58,3.58,3.58,0,0,1-.35,1.65,3.3,3.3,0,0,1-.95,1.17,4,4,0,0,1-1.39.68,6.12,6.12,0,0,1-1.67.23,5.92,5.92,0,0,1-2.05-.34A4.91,4.91,0,0,1,219,45.6l1.77-2a2.57,2.57,0,0,0,1,.79,2.72,2.72,0,0,0,1.21.28,2.68,2.68,0,0,0,.62-.07,2.49,2.49,0,0,0,.56-.21,1.41,1.41,0,0,0,.4-.37.94.94,0,0,0,.15-.53,1,1,0,0,0-.39-.81,3.66,3.66,0,0,0-1-.5c-.39-.14-.82-.28-1.28-.42a5.65,5.65,0,0,1-1.28-.56,3,3,0,0,1-1-.93,2.66,2.66,0,0,1-.39-1.52,3.43,3.43,0,0,1,.36-1.6,3.56,3.56,0,0,1,1-1.15,4.07,4.07,0,0,1,1.38-.69,5.48,5.48,0,0,1,1.62-.24,6.06,6.06,0,0,1,1.85.28,4.21,4.21,0,0,1,1.62.91Z"/></g></g></svg>